<svg width="570" height="480" viewBox="0 0 570 480" fill="none" xmlns="http://www.w3.org/2000/svg">
<path d="M143.78 456.78C143.151 456.809 142.528 456.644 141.996 456.307C141.464 455.969 141.049 455.477 140.806 454.895C140.563 454.314 140.505 453.671 140.638 453.056C140.772 452.44 141.092 451.88 141.554 451.452C141.632 451.144 141.687 450.923 141.765 450.614C141.163 449.084 140.118 447.768 138.764 446.835C137.41 445.903 135.809 445.396 134.166 445.381C132.523 445.365 130.913 445.842 129.541 446.748C128.17 447.655 127.101 448.951 126.47 450.47C122.831 458.998 118.121 467.826 120.463 477.219C104.991 444.391 110.253 403.555 133.119 375.48C139.439 371.995 144.562 365.802 145.896 358.611C142.768 359.672 138.868 357.125 141.22 353.826C142.239 352.566 143.268 351.315 144.288 350.054C132.405 337.385 118.248 357.296 131.327 374.395C127.048 379.766 123.342 385.569 120.269 391.711C120.979 385.189 120.132 378.592 117.798 372.462C115.432 366.749 110.998 361.937 107.094 356.998C102.346 350.98 92.5757 353.757 91.9369 361.393C96.3181 362.835 96.8873 369.171 91.8757 370.038C93.1883 384.245 102.459 397.301 115.228 403.531C110.513 416.777 108.671 430.876 109.827 444.89C107.573 428.512 90.0121 424.538 77.7378 418.028C76.9566 417.526 76.0465 417.263 75.1184 417.271C74.1904 417.278 73.2846 417.556 72.5115 418.07C71.7384 418.584 71.1315 419.312 70.7647 420.166C70.3979 421.019 70.2872 421.961 70.446 422.876C72.1401 423.566 73.7616 424.422 75.2866 425.433C76.0012 425.914 76.5497 426.604 76.8569 427.41C77.1641 428.215 77.2151 429.096 77.0027 429.931C76.7903 430.766 76.3251 431.516 75.6707 432.076C75.0163 432.636 74.2049 432.98 73.3476 433.061C79.5346 448.391 95.5306 458.685 111.959 458.627C113.538 465.495 115.826 472.181 118.785 478.576H143.169C143.256 478.304 143.335 478.024 143.414 477.753C141.157 477.895 138.891 477.76 136.667 477.351C142.638 470.273 147.256 466.662 143.781 456.781L143.78 456.78Z" fill="#86EB56"/>
<path d="M361.166 456.78C361.795 456.809 362.418 456.644 362.95 456.307C363.482 455.969 363.897 455.477 364.14 454.895C364.383 454.314 364.441 453.671 364.308 453.056C364.174 452.44 363.854 451.88 363.392 451.452C363.314 451.144 363.259 450.923 363.181 450.614C363.783 449.084 364.828 447.768 366.182 446.835C367.536 445.903 369.137 445.396 370.78 445.381C372.423 445.365 374.033 445.842 375.405 446.748C376.776 447.655 377.845 448.951 378.476 450.47C382.115 458.998 386.825 467.826 384.483 477.219C399.955 444.391 394.693 403.555 371.827 375.48C365.507 371.995 360.384 365.802 359.05 358.611C362.178 359.672 366.078 357.125 363.727 353.826C362.707 352.566 361.678 351.315 360.658 350.054C372.541 337.385 386.698 357.296 373.619 374.395C377.898 379.766 381.604 385.569 384.677 391.711C383.967 385.189 384.814 378.592 387.148 372.462C389.514 366.749 393.948 361.937 397.852 356.998C402.6 350.98 412.37 353.757 413.009 361.393C408.628 362.835 408.059 369.171 413.07 370.038C411.758 384.245 402.487 397.301 389.718 403.531C394.433 416.777 396.275 430.876 395.119 444.89C397.373 428.512 414.934 424.538 427.208 418.028C427.989 417.526 428.9 417.263 429.828 417.271C430.756 417.278 431.661 417.556 432.435 418.07C433.208 418.584 433.815 419.312 434.181 420.166C434.548 421.019 434.659 421.961 434.5 422.876C432.806 423.566 431.184 424.422 429.659 425.433C428.945 425.914 428.396 426.604 428.089 427.41C427.782 428.215 427.731 429.096 427.943 429.931C428.156 430.766 428.621 431.516 429.275 432.076C429.93 432.636 430.741 432.98 431.598 433.061C425.411 448.391 409.415 458.685 392.986 458.627C391.408 465.495 389.12 472.181 386.161 478.576H361.777C361.69 478.304 361.611 478.024 361.532 477.753C363.789 477.895 366.055 477.76 368.279 477.351C362.308 470.273 357.69 466.662 361.165 456.781L361.166 456.78Z" fill="#86EB56"/>
<path d="M370.207 460.406L359.706 462.796L345.493 423.385L360.992 419.855L370.207 460.406Z" fill="#FFB6B6"/>
<path d="M373.07 471.288L340.778 478.644L340.685 478.235C339.927 474.898 340.524 471.396 342.344 468.499C344.165 465.602 347.06 463.548 350.394 462.789L350.394 462.788L355.275 456.965L367.298 458.938L370.117 458.296L373.07 471.288Z" fill="#2F2E41"/>
<path d="M539.604 268.301L545.377 277.402L513.058 304.028L504.538 290.594L539.604 268.301Z" fill="#FFB6B6"/>
<path d="M548.884 261.951L566.638 289.939L566.285 290.163C563.399 291.998 559.903 292.61 556.566 291.865C553.23 291.119 550.326 289.077 548.493 286.188L548.492 286.188L541.375 283.539L539.199 271.537L537.649 269.094L548.884 261.951Z" fill="#2F2E41"/>
<path d="M204.872 170.997L202.278 155.947L241.709 138.121L250.224 123.028C249.949 121.703 250.045 120.329 250.502 119.055C250.958 117.782 251.757 116.66 252.811 115.813C253.864 114.966 255.131 114.427 256.472 114.255C257.812 114.083 259.174 114.286 260.406 114.841C261.639 115.395 262.694 116.28 263.456 117.397C264.218 118.515 264.656 119.821 264.723 121.172C264.789 122.523 264.482 123.867 263.834 125.054C263.186 126.241 262.222 127.225 261.051 127.899L247.043 149.58L204.872 170.997Z" fill="#A0616A"/>
<path d="M192.885 158.693L210.642 149.612L215.342 167.282L203.009 176.435L192.885 158.693Z" fill="#6C63FF"/>
<path d="M153.04 459.037L163.776 459.036L168.884 417.577L153.037 417.578L153.04 459.037Z" fill="#A0616A"/>
<path d="M167.349 460.004V452.717L164.526 452.89L153.037 453.571L150.378 453.735L148.345 478.14L148.236 479.448H155.859L156.104 478.149L157.211 472.243L160.07 478.149L160.697 479.448H180.908C182.111 479.44 183.262 478.958 184.112 478.106C184.961 477.253 185.441 476.1 185.446 474.896C186.299 470.907 169.491 462.285 167.349 460.004Z" fill="#2F2E41"/>
<path d="M25.5935 294.502L23.0907 304.955L62.1711 319.594L65.8646 304.168L25.5935 294.502Z" fill="#A0616A"/>
<path d="M22.1672 308.207L29.2453 309.906L29.7357 307.118L31.7527 295.774L32.2139 293.147L8.98261 285.477L7.73712 285.066L5.95961 292.488L7.16451 293.03L12.6429 295.484L6.23979 296.891L4.83173 297.197L0.119235 316.874C-0.153787 318.046 0.0462838 319.28 0.676042 320.305C1.3058 321.331 2.31438 322.067 3.48275 322.353C7.15824 324.113 19.4526 309.761 22.1672 308.207Z" fill="#2F2E41"/>
<path d="M169.641 190.716L155.821 184.248L128.262 217.637L111.475 221.887C110.271 221.273 108.921 221.004 107.574 221.109C106.227 221.215 104.935 221.691 103.842 222.486C102.748 223.28 101.895 224.362 101.377 225.611C100.858 226.86 100.695 228.229 100.905 229.565C101.115 230.902 101.69 232.154 102.566 233.184C103.442 234.214 104.585 234.981 105.87 235.401C107.154 235.821 108.53 235.878 109.844 235.565C111.159 235.251 112.361 234.58 113.319 233.626L137.9 225.806L169.641 190.716Z" fill="#A0616A"/>
<path d="M365.564 67.1147C362.635 67.1147 359.772 66.2451 357.336 64.6158C354.9 62.9865 353.002 60.6707 351.881 57.9614C350.76 55.252 350.467 52.2706 351.038 49.3943C351.61 46.5181 353.02 43.876 355.091 41.8023C357.163 39.7287 359.802 38.3165 362.675 37.7443C365.548 37.1722 368.526 37.4659 371.232 38.5881C373.939 39.7104 376.252 41.6109 377.879 44.0493C379.507 46.4877 380.375 49.3544 380.375 52.2871C380.371 56.2182 378.809 59.9872 376.032 62.767C373.256 65.5467 369.491 67.1103 365.564 67.1147V67.1147ZM365.564 39.1611C362.971 39.1611 360.436 39.9309 358.28 41.3732C356.124 42.8155 354.444 44.8655 353.451 47.264C352.459 49.6624 352.199 52.3016 352.705 54.8478C353.211 57.394 354.46 59.7329 356.293 61.5686C358.127 63.4043 360.463 64.6544 363.007 65.1609C365.55 65.6674 368.186 65.4074 370.582 64.4139C372.978 63.4205 375.025 61.7381 376.466 59.5795C377.907 57.4209 378.676 54.8831 378.676 52.2871C378.672 48.807 377.289 45.4707 374.831 43.0099C372.373 40.5492 369.041 39.165 365.564 39.1611V39.1611Z" fill="#4EF04B"/>
<path d="M364.519 57.874C364.49 57.874 364.46 57.8731 364.43 57.8716C364.167 57.8589 363.91 57.7894 363.676 57.6679C363.443 57.5464 363.238 57.3757 363.077 57.1676L360.743 54.1647C360.596 53.9751 360.488 53.7584 360.424 53.5268C360.36 53.2953 360.343 53.0534 360.372 52.8151C360.402 52.5768 360.479 52.3467 360.597 52.1379C360.716 51.9291 360.874 51.7457 361.064 51.5983L361.148 51.5329C361.337 51.3853 361.553 51.2765 361.785 51.2128C362.016 51.149 362.258 51.1315 362.496 51.1613C362.734 51.1911 362.964 51.2676 363.173 51.3864C363.381 51.5052 363.564 51.664 363.712 51.8537C363.829 52.0051 363.979 52.1293 364.149 52.2178C364.319 52.3063 364.506 52.3569 364.698 52.3663C364.889 52.3756 365.081 52.3434 365.259 52.2719C365.437 52.2004 365.597 52.0913 365.729 51.952L370.466 46.9452C370.8 46.5936 371.259 46.3887 371.743 46.3756C372.227 46.3624 372.697 46.542 373.049 46.875L373.127 46.9491C373.301 47.1142 373.441 47.3121 373.539 47.5314C373.636 47.7507 373.69 47.9872 373.697 48.2273C373.703 48.4674 373.662 48.7064 373.576 48.9306C373.49 49.1549 373.361 49.3601 373.196 49.5344L365.845 57.3028C365.674 57.4833 365.469 57.627 365.241 57.7252C365.013 57.8234 364.767 57.874 364.519 57.874Z" fill="#4EF04B"/>
<path d="M291.628 246.635C288.698 246.635 285.835 245.765 283.399 244.136C280.964 242.507 279.065 240.191 277.944 237.481C276.823 234.772 276.53 231.791 277.101 228.914C277.673 226.038 279.083 223.396 281.155 221.322C283.226 219.249 285.865 217.837 288.738 217.264C291.611 216.692 294.589 216.986 297.296 218.108C300.002 219.23 302.315 221.131 303.943 223.569C305.57 226.008 306.439 228.874 306.439 231.807C306.434 235.738 304.873 239.507 302.096 242.287C299.319 245.067 295.555 246.63 291.628 246.635V246.635ZM291.628 218.681C289.035 218.681 286.5 219.451 284.344 220.893C282.187 222.336 280.507 224.386 279.515 226.784C278.522 229.182 278.262 231.822 278.768 234.368C279.274 236.914 280.523 239.253 282.357 241.089C284.19 242.924 286.527 244.174 289.07 244.681C291.613 245.187 294.249 244.927 296.645 243.934C299.041 242.941 301.089 241.258 302.529 239.1C303.97 236.941 304.739 234.403 304.739 231.807C304.735 228.327 303.352 224.991 300.894 222.53C298.436 220.069 295.104 218.685 291.628 218.681V218.681Z" fill="#4EF04B"/>
<path d="M290.583 237.394C290.553 237.394 290.523 237.393 290.493 237.392C290.23 237.379 289.973 237.309 289.74 237.188C289.506 237.066 289.301 236.896 289.14 236.688L286.807 233.685C286.659 233.495 286.551 233.279 286.487 233.047C286.423 232.815 286.406 232.574 286.436 232.335C286.465 232.097 286.542 231.867 286.66 231.658C286.779 231.449 286.937 231.266 287.127 231.118L287.211 231.053C287.4 230.905 287.617 230.797 287.848 230.733C288.079 230.669 288.321 230.652 288.559 230.681C288.797 230.711 289.027 230.788 289.236 230.906C289.444 231.025 289.628 231.184 289.775 231.374C289.893 231.525 290.042 231.649 290.212 231.738C290.382 231.826 290.569 231.877 290.761 231.886C290.953 231.896 291.144 231.864 291.322 231.792C291.5 231.721 291.66 231.611 291.792 231.472L296.53 226.465C296.863 226.114 297.322 225.909 297.806 225.896C298.291 225.882 298.76 226.062 299.112 226.395L299.19 226.469C299.364 226.634 299.504 226.832 299.602 227.052C299.7 227.271 299.753 227.507 299.76 227.747C299.766 227.987 299.725 228.226 299.64 228.451C299.554 228.675 299.425 228.88 299.26 229.054L291.908 236.823C291.738 237.003 291.532 237.147 291.304 237.245C291.076 237.343 290.831 237.394 290.583 237.394Z" fill="#4EF04B"/>
<path d="M129.306 46.6949C126.377 46.6949 123.513 45.8253 121.077 44.196C118.642 42.5667 116.743 40.2509 115.622 37.5415C114.501 34.8321 114.208 31.8508 114.78 28.9745C115.351 26.0982 116.762 23.4562 118.833 21.3825C120.904 19.3088 123.543 17.8966 126.417 17.3245C129.29 16.7524 132.268 17.046 134.974 18.1683C137.68 19.2906 139.993 21.1911 141.621 23.6294C143.248 26.0678 144.117 28.9346 144.117 31.8672C144.113 35.7984 142.551 39.5674 139.774 42.3471C136.997 45.1269 133.233 46.6905 129.306 46.6949ZM129.306 18.7412C126.713 18.7412 124.178 19.5111 122.022 20.9534C119.866 22.3957 118.185 24.4457 117.193 26.8441C116.2 29.2426 115.941 31.8818 116.447 34.428C116.953 36.9742 118.201 39.313 120.035 41.1488C121.869 42.9845 124.205 44.2346 126.748 44.7411C129.291 45.2475 131.928 44.9876 134.323 43.9941C136.719 43.0006 138.767 41.3182 140.208 39.1597C141.648 37.0011 142.417 34.4633 142.417 31.8672C142.413 28.3872 141.031 25.0509 138.573 22.5901C136.115 20.1294 132.782 18.7452 129.306 18.7412V18.7412Z" fill="#4EF04B"/>
<path d="M128.261 37.4534C128.231 37.4534 128.201 37.4524 128.171 37.451C127.908 37.4382 127.651 37.3688 127.418 37.2472C127.184 37.1257 126.98 36.9551 126.818 36.747L124.485 33.7441C124.338 33.5545 124.229 33.3378 124.165 33.1062C124.102 32.8746 124.084 32.6328 124.114 32.3945C124.144 32.1561 124.22 31.926 124.339 31.7172C124.457 31.5084 124.616 31.3251 124.805 31.1777L124.889 31.1123C125.078 30.9647 125.295 30.8559 125.526 30.7921C125.758 30.7284 125.999 30.7109 126.237 30.7407C126.476 30.7705 126.705 30.8469 126.914 30.9657C127.123 31.0845 127.306 31.2433 127.453 31.433C127.571 31.5845 127.72 31.7087 127.89 31.7972C128.06 31.8856 128.248 31.9363 128.439 31.9456C128.631 31.955 128.822 31.9228 129 31.8513C129.178 31.7798 129.339 31.6707 129.471 31.5314L134.208 26.5246C134.541 26.173 135 25.9681 135.485 25.9549C135.969 25.9418 136.438 26.1213 136.79 26.4543L136.868 26.5284C137.042 26.6936 137.182 26.8915 137.28 27.1108C137.378 27.3301 137.431 27.5665 137.438 27.8066C137.444 28.0467 137.404 28.2857 137.318 28.51C137.232 28.7343 137.103 28.9394 136.938 29.1137L129.586 36.8822C129.416 37.0626 129.21 37.2063 128.982 37.3045C128.754 37.4028 128.509 37.4534 128.261 37.4534Z" fill="#4EF04B"/>
<path d="M247.883 301.765C213.538 301.765 174.067 263.61 139.145 281.739C33.4108 336.627 47.9657 244.78 17.5891 210.621L18.5864 208.618C52.1035 238.705 93.9507 263.185 139.604 279.409C180.861 294.073 222.427 300.867 259.793 299.074L259.858 301.481C255.912 301.671 251.92 301.766 247.883 301.765Z" fill="#86EB56"/>
<path d="M200.77 43.7923C204.735 43.7923 207.949 39.4774 207.949 34.1548C207.949 28.8322 204.735 24.5173 200.77 24.5173C196.805 24.5173 193.591 28.8322 193.591 34.1548C193.591 39.4774 196.805 43.7923 200.77 43.7923Z" fill="#E6E6E6"/>
<path d="M283.687 194.139C280.405 196.329 277.046 191.117 280.391 189.025C283.673 186.836 287.032 192.047 283.687 194.139Z" fill="#E6E6E6"/>
<path d="M264.796 18.7178C269.959 18.7178 274.144 14.5277 274.144 9.35888C274.144 4.19012 269.959 0 264.796 0C259.633 0 255.447 4.19012 255.447 9.35888C255.447 14.5277 259.633 18.7178 264.796 18.7178Z" fill="#FF6584"/>
<path d="M243.799 250.131C248.822 250.131 252.895 246.054 252.895 241.025C252.895 235.997 248.822 231.92 243.799 231.92C238.776 231.92 234.704 235.997 234.704 241.025C234.704 246.054 238.776 250.131 243.799 250.131Z" fill="#F2F2F2"/>
<path d="M155.708 244.498C155.708 244.498 133.033 259.28 139.029 269.102C139.236 269.44 111.944 305.526 111.944 305.526L60.4248 302.251L58.6096 319.514L104.476 332.813C104.476 332.813 115.697 341.066 124.365 331.973C133.033 322.88 161.907 295.035 161.907 295.035L163.299 351.254L148.805 429.156L170.447 427.782L191.51 349.627L199.286 261.097L155.708 244.498Z" fill="#2F2E41"/>
<path d="M171.859 155.786L162.324 163.02L151.456 186.242L161.907 200.451C161.907 200.451 170.698 215.703 156.627 230.474C142.556 245.244 131.751 261.02 143.013 260.457C154.276 259.894 199.89 283.12 200.19 264.091C200.49 245.063 201.097 230.474 201.097 230.474L213.056 200.108C213.056 200.108 220.181 181.993 215.179 176.57C210.176 171.147 203.479 164.218 203.479 164.218L191.299 152.025H180.301L171.859 155.786Z" fill="#6C63FF"/>
<path d="M189.659 111.168C211.05 123.354 193.489 155.507 171.699 144.057C150.309 131.872 167.87 99.7187 189.659 111.168Z" fill="#A0616A"/>
<path d="M201.097 117.925C199.598 119.877 196.467 118.962 190.334 120.354C190.348 118.273 190.108 116.198 189.619 114.176C189.163 116.68 188.163 119.054 186.69 121.129C181.365 121.72 187.893 137.915 185.167 149.822C181.654 124.702 174.265 131.283 177.998 136.266C180.387 139.456 178.794 149.025 171.625 144.24C159.797 149.868 142.95 121.912 161.622 108.801C161.288 101.715 169.165 100.595 174.015 102.774C185.786 93.9955 199.234 105.244 201.097 117.925Z" fill="#2F2E41"/>
<path d="M146.212 99.5955C141.45 128.91 115.923 94.2044 103.921 123.052C100.147 133.499 106.622 140.973 110.718 149.644C111.652 156.771 102.392 160.386 101.422 166.946C101.152 181.985 125.388 181.065 132.163 171.577C139.124 161.644 130.811 148.318 134.996 137.656C140.877 122.855 164.795 122.745 166.878 105.524C162.843 99.771 151.992 93.1821 146.212 99.5955Z" fill="#2F2E41"/>
<path d="M165.505 102.46C165.349 102.526 165.194 102.592 165.054 102.666H165.046C164.915 102.731 164.784 102.797 164.652 102.871C164.636 102.879 164.628 102.887 164.611 102.896C164.439 102.731 164.267 102.567 164.087 102.403C164.04 102.67 164.051 102.945 164.119 103.207L164.144 103.306C164.308 103.478 164.48 103.643 164.661 103.815C164.825 103.692 164.98 103.561 165.144 103.437C165.243 103.355 165.341 103.273 165.448 103.191C165.464 102.978 165.489 102.731 165.513 102.46L165.505 102.46ZM170.442 93.3317C166.784 92.4944 165.604 97.2804 165.251 99.5872C163.923 91.2137 158.396 93.8489 160.306 99.5625C160.915 101.254 161.874 102.798 163.119 104.094C163.291 104.291 163.48 104.488 163.677 104.685C163.455 105.834 164.57 105.539 166.079 104.48C167.193 103.687 168.224 102.782 169.154 101.779C172.164 98.6185 174.509 94.3907 170.442 93.3317V93.3317ZM170.556 98.0439C169.428 99.5005 168.162 100.845 166.776 102.058C166.342 102.452 165.899 102.83 165.448 103.191C165.44 103.265 165.44 103.331 165.431 103.388C165.4 103.468 165.361 103.545 165.317 103.618C164.857 104.447 164.341 103.996 164.144 103.306C164.128 103.281 164.103 103.257 164.087 103.232C163.431 102.554 162.861 101.799 162.389 100.983C159.002 95.1049 164.456 91.107 164.185 102.083C164.135 102.184 164.102 102.292 164.087 102.403C164.04 102.67 164.051 102.945 164.119 103.207L164.144 103.306C164.308 103.478 164.48 103.643 164.661 103.815C164.825 103.692 164.98 103.561 165.144 103.437C165.243 103.355 165.341 103.273 165.448 103.191C165.464 102.978 165.489 102.731 165.513 102.46V102.452C165.727 100.252 166.309 96.2953 167.383 95.2199C169.745 93.4056 172.803 95.3676 170.556 98.0439V98.0439ZM165.505 102.46C165.349 102.526 165.194 102.592 165.054 102.666H165.046C164.915 102.731 164.784 102.797 164.652 102.871C164.636 102.879 164.628 102.887 164.611 102.896C164.439 102.731 164.267 102.567 164.087 102.403C164.04 102.67 164.051 102.945 164.119 103.207L164.144 103.306C164.308 103.478 164.48 103.643 164.661 103.815C164.825 103.692 164.98 103.561 165.144 103.437C165.243 103.355 165.341 103.273 165.448 103.191C165.464 102.978 165.489 102.731 165.513 102.46L165.505 102.46Z" fill="#2F2E41"/>
<path d="M363.217 264.08L355.317 284.706L318.256 357.893L350.821 443.031L367.628 438.589L353.775 357.893L393.518 309.55L440.715 341.597C440.715 341.597 461.647 357.957 469.61 342.448C477.573 326.939 529.1 293.952 529.1 293.952L516.352 280.339L457.016 308.138L416.063 250.43L363.217 264.08Z" fill="#2F2E41"/>
<path d="M403.081 166.785L390.076 152.797L367.767 149.725L340.433 168.882L340.708 190.087L354.221 240.054C354.221 240.054 349.074 275.953 363.45 275.593C377.826 275.233 385.662 268.058 391.518 269.518C397.373 270.979 422.263 277.195 423.84 270.684C425.418 264.172 433.803 268.835 433.435 262.675C433.067 256.515 410.736 212.114 410.736 212.114L416.288 167.709L403.081 166.785Z" fill="#6C63FF"/>
<path d="M485.424 102.396C485.54 103.556 485.401 104.728 485.016 105.828C484.631 106.929 484.01 107.931 483.197 108.765C482.383 109.599 481.397 110.245 480.307 110.656C479.217 111.067 478.05 111.234 476.889 111.145L446.983 168.086L438.953 155.747L469.522 102.006C469.801 100.063 470.782 98.29 472.279 97.0227C473.776 95.7554 475.686 95.082 477.646 95.1301C479.606 95.1782 481.48 95.9444 482.914 97.2836C484.347 98.6228 485.24 100.442 485.424 102.396V102.396Z" fill="#FFB6B6"/>
<path d="M391.274 177.373C391.274 177.373 390.088 187.502 401.477 190.009C412.867 192.517 444.423 174.466 449.596 171.709C451.216 170.846 453.414 166.614 455.669 161.208C456.682 158.781 457.706 156.117 458.694 153.416C459.266 151.852 462.005 151.426 462.544 149.875C463.08 148.333 461.417 145.667 461.902 144.214C464.206 137.316 465.839 131.843 465.839 131.843L458.29 117.647C447.732 123.235 442.317 135.543 438.334 149.723L391.274 177.373Z" fill="#6C63FF"/>
<path d="M258.255 115.472C258.432 116.625 258.86 117.724 259.507 118.693C260.155 119.662 261.007 120.477 262.003 121.081C262.999 121.684 264.116 122.062 265.274 122.187C266.431 122.312 267.603 122.182 268.705 121.804L311.894 169.441L316.583 155.482L273.553 111.111C272.798 109.299 271.405 107.828 269.638 106.977C267.872 106.125 265.854 105.951 263.969 106.489C262.083 107.027 260.46 108.238 259.407 109.894C258.354 111.549 257.944 113.534 258.255 115.472V115.472Z" fill="#FFB6B6"/>
<path d="M368.152 164.475C368.152 164.475 371.832 173.984 361.431 179.265C351.031 184.547 315.967 174.976 310.27 173.603C308.485 173.173 305.299 169.626 301.765 164.958C300.178 162.862 298.52 160.539 296.888 158.171C295.943 156.801 293.185 157.074 292.275 155.708C291.371 154.349 292.315 151.351 291.482 150.066C287.527 143.964 284.578 139.075 284.578 139.075L288.338 123.439C299.957 126.204 308.276 136.764 315.677 149.495L368.152 164.475Z" fill="#6C63FF"/>
<path d="M379.366 146.166C391.089 146.166 400.592 136.652 400.592 124.916C400.592 113.18 391.089 103.667 379.366 103.667C367.644 103.667 358.141 113.18 358.141 124.916C358.141 136.652 367.644 146.166 379.366 146.166Z" fill="#FFB6B6"/>
<path d="M403.596 112.749C401.363 109.291 397.173 106.986 393.112 107.634C392.734 105.039 391.652 102.597 389.983 100.575C388.315 98.5531 386.125 97.0279 383.651 96.1657C381.177 95.3035 378.514 95.1373 375.952 95.6853C373.391 96.2333 371.028 97.4744 369.122 99.2735C368.495 98.8317 367.765 98.5594 367.002 98.483C366.24 98.4066 365.47 98.5286 364.768 98.8373C363.37 99.4737 362.154 100.451 361.231 101.68C358.9 104.59 357.401 108.078 356.894 111.773C356.386 115.468 356.889 119.232 358.348 122.663C357.852 120.857 359.66 119.157 361.487 118.752C363.315 118.346 365.231 118.73 367.084 118.466C369.459 118.127 371.594 116.748 373.973 116.438C375.99 116.306 378.014 116.567 379.932 117.204C381.85 117.842 383.871 118.113 385.889 118.005C387.891 117.767 390.47 125.363 390.435 130.713C390.428 131.726 390.637 133.028 391.627 133.243C392.845 133.508 393.552 131.824 394.712 131.365C395.246 131.212 395.82 131.272 396.311 131.534C396.802 131.795 397.172 132.237 397.344 132.767C397.49 133.305 397.506 133.871 397.39 134.416C397.274 134.962 397.029 135.472 396.676 135.904C395.963 136.76 395.117 137.495 394.169 138.081L394.647 138.478C395.101 138.958 395.707 139.265 396.361 139.346C397.016 139.428 397.679 139.279 398.236 138.925C399.331 138.182 400.218 137.171 400.812 135.988C403.051 132.521 404.652 128.681 405.539 124.65C406.287 120.601 405.829 116.207 403.596 112.749Z" fill="#2F2E41"/>
<path d="M560.625 196.56C533.247 217.319 478.771 210.761 461.866 246.321C410.681 353.987 366.892 271.971 322.076 263.102L321.663 260.903C366.527 264.628 414.649 258.848 460.827 244.187C502.559 230.938 539.791 211.23 568.497 187.215L570 189.095C566.969 191.632 563.844 194.12 560.625 196.56Z" fill="#86EB56"/>
<path d="M444.871 478.549C444.219 480.483 71.9208 480.483 71.2173 478.554C71.8685 476.615 444.166 476.615 444.871 478.549Z" fill="#CCCCCC"/>
</svg>
